<?xml version="1.0" encoding="utf-8"?>
<!-- Generator: Adobe Illustrator 27.7.0, SVG Export Plug-In . SVG Version: 6.00 Build 0)  -->
<svg version="1.1" id="_레이어_1" xmlns="http://www.w3.org/2000/svg" xmlns:xlink="http://www.w3.org/1999/xlink" x="0px"
	 y="0px" viewBox="0 0 144 34" style="enable-background:new 0 0 144 34;" xml:space="preserve">
<style type="text/css">
	.st0{fill:#FFFFFF;}
</style>
<path class="st0" d="M15,6.2c0.6,0.5,1.4,0.7,2.3,0.7s1.7-0.3,2.3-0.8c0.6-0.6,0.8-1.2,0.8-2.1c0-0.6-0.2-1.1-0.5-1.6
	c-0.4-0.5-0.8-0.9-1.4-1.3s-1.3-0.6-2.1-0.8c-1.4-0.3-3.2-0.4-4.9-0.2C10.7,0.2,10,0.4,9.3,0.6c-0.7,0.2-1.4,0.5-2,0.9
	C6.7,1.9,6.1,2.3,5.7,2.9c-0.4,0.5-0.7,1-1,1.6c-0.2,0.6-0.5,1.2-0.6,2C4,7.3,3.9,8.2,3.8,9.3c0,1-0.1,2.3-0.1,3.8H3.2
	c-0.3,0-1.9,0.4-2.5,0.8C0.3,14,0,14.2,0,14.6c0,0.3,0.2,0.5,0.3,0.5c0.1,0.1,0.3,0.1,0.8,0.1h2.6v14.4c0,0.5-0.1,1-0.4,1.3
	c-0.3,0.4-0.6,0.6-0.9,0.8c-0.3,0.2-0.7,0.3-1,0.4c-0.4,0.1-0.6,0.1-0.7,0.2c-0.2,0-0.3,0.1-0.4,0.2c-0.1,0.1-0.2,0.3-0.1,0.4
	c0,0.1,0.1,0.3,0.2,0.3s0.3,0.2,0.5,0.2h12.8c0.2,0,0.4-0.1,0.5-0.2c0.1-0.1,0.2-0.2,0.2-0.4c0-0.2,0-0.3-0.1-0.4
	c-0.1-0.1-0.2-0.2-0.5-0.2c-0.1,0-0.4-0.1-0.7-0.2c-0.3-0.1-0.7-0.2-1-0.4c-0.3-0.2-0.6-0.5-0.9-0.8c-0.2-0.3-0.4-0.8-0.4-1.3V15.2
	h2c0.4,0,1.9-0.2,2.2-0.4c0.4-0.2,1.2-0.6,1.3-1.1c0.1-0.3-0.2-0.5-0.3-0.5c-0.1-0.1-0.3-0.1-0.8-0.1h-4.4V9c0-1.1,0-2.1,0.1-3.1
	C11,5,11.2,4.2,11.3,3.5c0.2-0.6,0.4-1.1,0.8-1.5c0.3-0.3,0.7-0.5,1.2-0.5c0.3,0,0.5,0.1,0.6,0.2c0.1,0.2,0.2,0.4,0.3,0.7
	c0,0.3,0.1,0.6,0,0.9c0,0.3,0,0.6,0,0.8C14.2,4.9,14.5,5.6,15,6.2L15,6.2z"/>
<path class="st0" d="M38.5,18c-0.3-0.6-0.7-1.2-1.1-1.9c-0.5-0.6-1.1-1.2-1.8-1.8c-0.7-0.5-1.6-0.9-2.6-1.3c-1-0.3-2.1-0.5-3.4-0.5
	c-1.4,0-2.7,0.2-4.1,0.7c-1.3,0.5-2.5,1.2-3.6,2.1c-1,0.9-1.9,2.1-2.5,3.4c-0.6,1.4-1,3-1,4.7c0,1.6,0.3,3.1,0.8,4.4
	c0.5,1.3,1.3,2.4,2.2,3.3c1,0.9,2.1,1.6,3.5,2.1c1.3,0.5,2.9,0.7,4.5,0.7c1.1,0,2.1-0.1,3-0.3c0.9-0.2,1.7-0.5,2.4-0.8
	c0.7-0.3,1.3-0.7,1.8-1c0.5-0.4,0.9-0.7,1.2-1.1c0.3-0.3,0.6-0.6,0.8-0.9c0.2-0.3,0.3-0.5,0.3-0.5c0.2-0.5,0.1-0.8,0-0.9
	c-0.2-0.2-0.5-0.2-0.8-0.1c-0.2,0.1-0.4,0.2-0.7,0.4c-0.3,0.2-0.7,0.4-1.2,0.6c-0.5,0.2-1,0.4-1.7,0.5c-0.6,0.2-1.4,0.2-2.2,0.2
	c-1.1,0-2-0.2-2.8-0.5c-0.8-0.3-1.5-0.8-2-1.4c-0.5-0.6-1-1.5-1.2-2.5c-0.3-1-0.4-2.3-0.4-3.8c0-0.1,0-0.1,0.1-0.1h12.6
	c0.2,0,0.4,0,0.6-0.1c0.1-0.1,0.3-0.2,0.3-0.5s-0.1-0.8-0.2-1.4C39,19.2,38.8,18.6,38.5,18z M26.2,18c0.1-0.5,0.3-0.9,0.4-1.4
	c0.2-0.5,0.4-0.9,0.6-1.2c0.2-0.4,0.5-0.6,0.9-0.9c0.3-0.2,0.7-0.3,1.2-0.3c0.6,0,1.1,0.1,1.5,0.5c0.4,0.3,0.8,0.7,1,1.2
	c0.3,0.5,0.5,1,0.6,1.5c0.1,0.5,0.2,1,0.2,1.4c0,0.4-0.1,0.6-0.3,0.8c-0.2,0.2-0.5,0.2-0.7,0.3c0,0-0.1,0-0.5,0L30,20
	c-0.4,0-0.9,0-1.3,0l-1.3,0c-0.4,0-0.7,0-1,0c-0.3,0-0.5,0-0.5,0c0-0.2,0-0.5,0.1-0.8C26,18.9,26.1,18.5,26.2,18L26.2,18z"/>
<path class="st0" d="M67.6,32.3c-0.1,0-0.4-0.1-0.6-0.1c-0.3-0.1-0.6-0.2-0.9-0.4c-0.3-0.2-0.6-0.4-0.8-0.8
	c-0.2-0.3-0.3-0.7-0.3-1.3v-8.6c0-0.5,0-1.1,0-1.7c0-0.6-0.1-1.3-0.2-1.9c-0.2-0.7-0.4-1.3-0.7-1.9c-0.3-0.6-0.8-1.1-1.4-1.6
	s-1.4-0.8-2.3-1.1c-0.9-0.3-2.1-0.4-3.4-0.4c-0.8,0-1.6,0.1-2.3,0.2s-1.3,0.3-1.9,0.5c-0.5,0.2-1.1,0.4-1.5,0.7
	c-0.3,0.2-0.5,0.3-0.8,0.5v-1.9c0-0.4-0.2-0.6-0.5-0.6c-0.2,0-0.4,0-0.6,0.1c-0.5,0.3-1,0.8-1.8,1.4c-0.6,0.4-1.4,0.8-2.2,1
	c-0.8,0.3-1.5,0.6-2.2,0.8c-0.7,0.2-1.4,0.4-2,0.5c-0.5,0.1-0.6,0.5-0.6,0.6c0,0.2,0.1,0.5,0.5,0.5c0.1,0,0.2,0,0.4,0.1
	c0.2,0,0.5,0.1,0.7,0.2l0.1,0c0.2,0,0.4,0.1,0.6,0.1c0.3,0.1,0.4,0.1,0.3,0.1c0.1,0,0.1,0,0.1,0.1v12.2c0,0.5-0.1,1-0.3,1.3
	c-0.2,0.3-0.5,0.6-0.8,0.8c-0.3,0.2-0.6,0.3-0.9,0.4c-0.2,0.1-0.5,0.1-0.7,0.1c-0.2,0-0.3,0.1-0.4,0.2c-0.1,0.1-0.2,0.3-0.1,0.4
	c0,0.1,0.1,0.2,0.2,0.3c0.1,0.1,0.3,0.2,0.5,0.2h12.2c0.2,0,0.3-0.1,0.5-0.2c0.1-0.1,0.2-0.2,0.2-0.3c0-0.2,0-0.3-0.1-0.4
	c-0.1-0.1-0.2-0.2-0.5-0.2c-0.1,0-0.4-0.1-0.6-0.1c-0.3-0.1-0.6-0.2-0.9-0.4c-0.3-0.2-0.6-0.4-0.8-0.8c-0.2-0.3-0.3-0.7-0.3-1.3
	V19.5c0-0.5,0-1,0.1-1.5c0-0.5,0.2-1,0.4-1.5c0.2-0.5,0.6-0.8,1.1-1.1c0.5-0.3,1.2-0.5,2-0.5s1.5,0.2,2,0.5c0.5,0.3,0.9,0.7,1.2,1.2
	c0.3,0.5,0.5,1.1,0.5,1.7c0.1,0.6,0.1,1.3,0.2,1.9v9.5c0,0.5-0.1,1-0.3,1.3c-0.2,0.3-0.5,0.6-0.8,0.8c-0.3,0.2-0.6,0.3-0.9,0.4
	c-0.3,0.1-0.5,0.1-0.7,0.1c-0.2,0-0.3,0.1-0.4,0.2c-0.1,0.1-0.2,0.3-0.1,0.4c0,0.1,0.1,0.3,0.2,0.3c0.1,0.1,0.3,0.2,0.5,0.2h12.2
	c0.2,0,0.3-0.1,0.5-0.2c0.1-0.1,0.2-0.2,0.2-0.3c0-0.2,0-0.3-0.1-0.4C67.9,32.4,67.8,32.3,67.6,32.3L67.6,32.3z"/>
<path class="st0" d="M97.3,32.3c-0.1,0-0.4-0.1-0.6-0.1c-0.3-0.1-0.6-0.2-0.9-0.4c-0.3-0.2-0.6-0.4-0.8-0.8
	c-0.2-0.3-0.3-0.7-0.3-1.3v-8.6c0-0.5,0-1.1,0-1.7c0-0.6-0.1-1.3-0.2-1.9c-0.2-0.7-0.4-1.3-0.7-1.9c-0.3-0.6-0.8-1.1-1.4-1.6
	c-0.6-0.5-1.4-0.8-2.3-1.1c-0.9-0.3-2.1-0.4-3.4-0.4c-0.8,0-1.6,0.1-2.3,0.2c-0.7,0.1-1.3,0.3-1.9,0.5c-0.6,0.2-1.1,0.4-1.5,0.7
	c-0.3,0.2-0.5,0.3-0.8,0.5v-1.9c0-0.4-0.2-0.6-0.5-0.6c-0.2,0-0.4,0-0.6,0.1c-0.5,0.3-1,0.8-1.8,1.4c-0.6,0.4-1.4,0.8-2.2,1
	c-0.8,0.3-1.5,0.6-2.2,0.8c-0.7,0.2-1.4,0.4-2,0.5c-0.5,0.1-0.6,0.5-0.6,0.6c0,0.2,0.1,0.5,0.5,0.5c0.1,0,0.2,0,0.4,0.1
	c0.2,0,0.4,0.1,0.7,0.2l0.1,0c0.2,0,0.4,0.1,0.6,0.1c0.3,0.1,0.4,0.1,0.3,0.1c0.1,0,0.1,0,0.1,0.1v12.2c0,0.5-0.1,1-0.3,1.3
	c-0.2,0.3-0.5,0.6-0.8,0.8c-0.3,0.2-0.6,0.3-0.9,0.4c-0.2,0.1-0.5,0.1-0.7,0.1c-0.2,0-0.3,0.1-0.4,0.2c-0.1,0.1-0.2,0.3-0.1,0.4
	c0,0.1,0.1,0.2,0.2,0.3c0.1,0.1,0.3,0.2,0.5,0.2h12.2c0.2,0,0.3-0.1,0.5-0.2c0.1-0.1,0.2-0.2,0.2-0.3c0-0.2,0-0.3-0.1-0.4
	c-0.1-0.1-0.2-0.2-0.4-0.2c-0.1,0-0.4-0.1-0.6-0.1c-0.3-0.1-0.6-0.2-0.9-0.4c-0.3-0.2-0.6-0.4-0.8-0.8c-0.2-0.3-0.3-0.7-0.3-1.3
	V19.5c0-0.5,0-1,0.1-1.5c0.1-0.5,0.2-1,0.4-1.5c0.2-0.5,0.6-0.8,1.1-1.1c0.5-0.3,1.2-0.5,2.1-0.5s1.5,0.2,2,0.5
	c0.5,0.3,0.9,0.7,1.2,1.2c0.3,0.5,0.4,1.1,0.5,1.7c0.1,0.6,0.1,1.3,0.2,1.9v9.5c0,0.5-0.1,1-0.3,1.3c-0.2,0.3-0.5,0.6-0.8,0.8
	c-0.3,0.2-0.6,0.3-0.9,0.4c-0.3,0.1-0.5,0.1-0.7,0.1c-0.2,0-0.3,0.1-0.4,0.2c-0.1,0.1-0.2,0.3-0.1,0.4c0,0.1,0.1,0.3,0.2,0.3
	c0.1,0.1,0.3,0.2,0.5,0.2h12.2c0.2,0,0.3-0.1,0.5-0.2c0.1-0.1,0.2-0.2,0.2-0.3c0-0.2,0-0.3-0.1-0.4C97.7,32.4,97.5,32.3,97.3,32.3
	L97.3,32.3z"/>
<path class="st0" d="M118.9,18c-0.3-0.6-0.7-1.2-1.2-1.9c-0.5-0.6-1.1-1.2-1.8-1.8c-0.7-0.5-1.6-0.9-2.6-1.3c-1-0.3-2.2-0.5-3.4-0.5
	c-1.4,0-2.7,0.2-4.1,0.7c-1.3,0.5-2.5,1.2-3.6,2.1c-1,0.9-1.9,2.1-2.6,3.4c-0.7,1.4-1,3-1,4.7c0,1.6,0.3,3.1,0.8,4.4
	c0.5,1.3,1.3,2.4,2.2,3.3c1,0.9,2.1,1.6,3.5,2.1c1.3,0.5,2.8,0.7,4.5,0.7c1.1,0,2.1-0.1,3-0.3c0.9-0.2,1.7-0.5,2.4-0.8
	s1.3-0.7,1.8-1c0.5-0.4,0.9-0.7,1.2-1.1c0.3-0.3,0.6-0.6,0.8-0.9c0.2-0.3,0.3-0.5,0.3-0.5c0.2-0.5,0.1-0.8-0.1-0.9
	c-0.2-0.2-0.5-0.2-0.8-0.1c-0.2,0.1-0.4,0.2-0.7,0.4c-0.3,0.2-0.7,0.4-1.2,0.6c-0.5,0.2-1,0.4-1.7,0.5c-0.6,0.2-1.4,0.2-2.2,0.2
	c-1.1,0-2-0.2-2.8-0.5c-0.8-0.3-1.5-0.8-2-1.4c-0.5-0.6-0.9-1.5-1.2-2.5c-0.3-1-0.4-2.3-0.4-3.8c0-0.1,0-0.1,0.1-0.1h12.6
	c0.2,0,0.4,0,0.6-0.1c0.1-0.1,0.3-0.2,0.3-0.5s-0.1-0.8-0.2-1.4C119.4,19.2,119.2,18.6,118.9,18z M106.6,18c0.1-0.4,0.2-0.9,0.4-1.4
	c0.2-0.5,0.4-0.9,0.7-1.2c0.2-0.4,0.5-0.6,0.9-0.9c0.3-0.2,0.7-0.3,1.2-0.3c0.6,0,1.1,0.1,1.4,0.5c0.4,0.3,0.8,0.7,1,1.2
	c0.3,0.5,0.5,1,0.6,1.5c0.1,0.5,0.2,1,0.2,1.4c0,0.4-0.1,0.6-0.3,0.8c-0.2,0.2-0.5,0.2-0.7,0.3c0,0-0.1,0-0.5,0l-1.1,0
	c-0.4,0-0.8,0-1.3,0l-1.3,0c-0.4,0-0.7,0-1,0c-0.3,0-0.4,0-0.5,0c0-0.2,0.1-0.5,0.1-0.8C106.4,18.9,106.5,18.5,106.6,18L106.6,18z"
	/>
<path class="st0" d="M143.3,27.7c-0.2-0.2-0.5-0.2-0.8-0.1c-0.2,0.1-0.4,0.2-0.9,0.5c-0.4,0.3-0.9,0.6-1.4,0.9
	c-0.6,0.3-1.3,0.6-2,0.8c-0.8,0.2-1.6,0.4-2.5,0.4s-1.8-0.2-2.6-0.5c-0.8-0.4-1.5-0.9-2.1-1.5c-0.6-0.7-1.1-1.5-1.4-2.4
	c-0.3-1-0.5-2.1-0.5-3.3s0.1-2.4,0.3-3.4c0.2-1,0.5-1.9,0.9-2.6c0.4-0.7,0.8-1.2,1.3-1.6c0.5-0.4,1-0.6,1.6-0.6c0.5,0,0.8,0.1,1,0.4
	c0.3,0.3,0.5,0.6,0.6,1c0.2,0.4,0.3,0.8,0.4,1.2c0.1,0.5,0.3,0.9,0.6,1.2c0.3,0.4,0.7,0.7,1.2,0.9c0.8,0.3,1.7,0.3,2.6,0.1
	c0.4-0.1,0.7-0.3,1-0.5c0.3-0.2,0.5-0.5,0.7-0.9s0.3-0.8,0.3-1.3c0-0.6-0.2-1.1-0.6-1.6c-0.4-0.5-0.9-0.9-1.6-1.2
	c-0.7-0.3-1.5-0.6-2.4-0.8c-0.9-0.2-2-0.3-3.1-0.3c-0.7,0-1.5,0.1-2.3,0.2c-0.9,0.2-1.7,0.4-2.6,0.8c-0.9,0.4-1.8,0.8-2.6,1.4
	c-0.8,0.6-1.6,1.3-2.3,2.1c-0.7,0.8-1.2,1.8-1.6,2.9c-0.4,1.1-0.6,2.4-0.6,3.8c0,1.6,0.3,3.1,0.8,4.3c0.5,1.3,1.3,2.4,2.3,3.2
	c1,0.9,2.2,1.5,3.5,2c1.4,0.5,2.9,0.7,4.6,0.7c1.1,0,2.1-0.1,3-0.3c0.9-0.2,1.7-0.5,2.4-0.8c0.7-0.3,1.4-0.7,1.9-1.1
	c0.5-0.4,1-0.8,1.4-1.2c0.4-0.4,0.7-0.8,0.9-1.1c0.2-0.3,0.4-0.6,0.5-0.7C143.6,28.1,143.4,27.8,143.3,27.7L143.3,27.7z"/>
</svg>
