<?xml version="1.0" encoding="UTF-8"?><svg id="_레이어_1" xmlns="http://www.w3.org/2000/svg" viewBox="0 0 144 34"><path d="m15.04,6.16c.58.49,1.36.74,2.29.74s1.71-.28,2.26-.82c.56-.56.84-1.25.84-2.09,0-.56-.18-1.1-.54-1.61-.35-.49-.83-.91-1.43-1.26-.6-.35-1.32-.63-2.13-.83-1.42-.35-3.16-.38-4.89-.17-.73.09-1.46.24-2.17.47-.7.22-1.36.53-1.97.9-.61.38-1.15.85-1.61,1.43-.39.49-.7,1.03-.96,1.59-.25.57-.46,1.25-.6,2.02-.15.79-.25,1.72-.31,2.77-.05,1.02-.08,2.26-.08,3.78h-.49c-.35,0-1.86.43-2.55.76-.36.17-.67.34-.67.79,0,.33.18.47.29.52.09.05.26.09.83.09h2.59v14.35c0,.54-.12.97-.37,1.29-.27.35-.57.6-.9.8-.34.2-.68.35-1.01.42-.35.09-.57.14-.71.16-.19.05-.32.12-.42.23-.12.14-.16.29-.12.43.03.13.11.26.22.35.11.09.28.15.47.15h12.77c.2,0,.35-.06.47-.15.12-.1.19-.21.23-.36.03-.15-.01-.3-.12-.43-.1-.11-.23-.18-.46-.24-.14-.01-.45-.09-.68-.15-.32-.08-.66-.22-1-.42-.33-.19-.63-.46-.9-.8-.24-.32-.37-.75-.37-1.29v-14.35h2.01c.35,0,1.9-.25,2.24-.4.45-.19,1.16-.64,1.31-1.15.08-.32-.18-.48-.29-.53-.09-.05-.26-.09-.83-.09h-4.43v-4.1c0-1.09.04-2.13.11-3.08.07-.92.2-1.72.39-2.39.18-.63.44-1.14.77-1.49.3-.32.7-.49,1.19-.49.28,0,.46.07.58.22.13.18.22.39.26.65.04.27.06.56.04.86-.01.32-.02.58-.02.79,0,.89.3,1.59.89,2.1Z"/><path d="m38.48,17.97c-.28-.63-.66-1.25-1.14-1.91-.47-.64-1.08-1.23-1.82-1.76-.72-.51-1.59-.94-2.57-1.27-1-.33-2.15-.49-3.44-.49-1.38,0-2.74.24-4.07.73-1.31.48-2.51,1.18-3.56,2.11-1.04.92-1.9,2.08-2.55,3.44-.65,1.38-.98,2.96-.98,4.72,0,1.61.27,3.08.79,4.37.52,1.3,1.27,2.41,2.24,3.31.96.91,2.12,1.61,3.46,2.07,1.34.47,2.85.71,4.5.71,1.08,0,2.07-.11,2.97-.3.88-.2,1.68-.46,2.37-.78.68-.32,1.29-.66,1.78-1.04.49-.37.92-.74,1.25-1.08.32-.34.59-.65.77-.93.18-.26.29-.45.35-.54.25-.48.08-.75-.05-.87-.2-.19-.49-.24-.82-.11-.15.06-.37.18-.72.39-.28.18-.66.37-1.15.59-.48.21-1.04.39-1.68.55-.63.16-1.36.23-2.19.23-1.06,0-2.01-.16-2.81-.47-.79-.31-1.46-.79-1.99-1.42-.53-.65-.95-1.51-1.23-2.54-.28-1.05-.43-2.32-.43-3.79,0-.09,0-.11.12-.11h12.55c.22,0,.4-.04.56-.12.11-.06.29-.21.29-.54s-.06-.79-.18-1.35c-.11-.56-.32-1.17-.62-1.8Zm-12.25.07c.12-.46.26-.91.43-1.35.17-.45.39-.87.64-1.23.25-.35.55-.65.89-.87.33-.21.73-.32,1.17-.32.57,0,1.06.15,1.45.46.41.32.75.71,1.02,1.19.27.48.47.98.59,1.52.13.53.19,1.01.19,1.42,0,.38-.1.63-.31.77-.24.16-.47.25-.72.27-.02,0-.13.02-.53.03l-1.07.03c-.42.01-.86.03-1.31.05l-1.28.04c-.4.01-.73.03-1.01.03-.32.01-.45.02-.51.01.02-.19.05-.47.11-.83.06-.41.14-.81.24-1.21Z"/><path d="m67.6,32.28c-.13-.01-.39-.08-.63-.14-.29-.07-.6-.2-.91-.38-.3-.18-.56-.43-.81-.77-.23-.31-.34-.74-.34-1.27v-8.61c0-.53-.01-1.1-.04-1.71-.02-.63-.1-1.27-.25-1.89-.15-.66-.39-1.28-.7-1.86-.34-.6-.82-1.15-1.44-1.61-.62-.46-1.4-.83-2.32-1.1-.93-.27-2.09-.41-3.43-.41-.83,0-1.59.06-2.27.18-.68.12-1.31.28-1.87.48-.55.19-1.06.42-1.52.69-.28.16-.54.33-.77.49v-1.86c0-.41-.24-.58-.47-.6-.22-.01-.41.03-.62.15-.54.32-1.04.84-1.84,1.36-.64.43-1.43.77-2.16,1.04-.75.29-1.5.55-2.21.77-.73.22-1.41.41-2.04.54-.53.13-.57.46-.56.59,0,.16.09.45.51.54.06.01.19.05.43.09.22.05.45.1.71.16l.12.03c.22.05.41.09.58.12.29.06.39.07.35.08.08.01.08.03.08.09v12.24c0,.53-.11.96-.34,1.27-.24.33-.51.59-.81.77-.32.19-.62.32-.91.38-.22.06-.49.12-.66.14-.2.05-.32.12-.42.23-.11.13-.16.29-.11.43.02.13.1.25.22.35.12.09.27.15.47.15h12.24c.19,0,.35-.06.47-.15.12-.1.2-.22.22-.35.03-.16,0-.31-.12-.44-.1-.11-.22-.18-.45-.24-.13-.01-.43-.08-.63-.14-.29-.07-.6-.2-.91-.38-.3-.18-.58-.44-.81-.77-.23-.31-.35-.74-.35-1.27v-10.15c0-.45.03-.95.09-1.48.05-.53.2-1.04.43-1.51.23-.46.59-.84,1.06-1.15.48-.31,1.17-.47,2.05-.47s1.54.16,2.04.47c.51.32.9.73,1.15,1.23.27.5.45,1.07.54,1.7.09.64.13,1.27.16,1.86v9.49c0,.53-.12.96-.34,1.27-.25.34-.51.59-.81.77-.32.19-.61.32-.91.38-.32.08-.52.13-.66.14-.18.05-.32.12-.42.23-.12.14-.16.29-.12.43.03.13.11.26.22.35.12.09.28.15.47.15h12.23c.2,0,.35-.06.46-.15.13-.1.2-.22.23-.35.04-.16,0-.32-.11-.44-.1-.11-.23-.18-.46-.24Z"/><path d="m97.32,32.28c-.13-.01-.39-.08-.63-.14-.29-.07-.6-.2-.91-.38-.3-.18-.56-.43-.81-.77-.22-.31-.33-.74-.33-1.27v-8.61c0-.53-.01-1.1-.04-1.71-.03-.63-.11-1.27-.25-1.89-.15-.66-.39-1.28-.71-1.86-.33-.6-.81-1.15-1.44-1.61-.62-.46-1.4-.83-2.32-1.1-.93-.27-2.08-.41-3.42-.41-.83,0-1.59.06-2.28.18-.68.12-1.31.28-1.87.48-.55.19-1.06.42-1.52.69-.28.16-.54.33-.77.49v-1.86c0-.41-.25-.58-.47-.6-.22-.01-.41.03-.62.15-.54.32-1.04.84-1.84,1.36-.64.43-1.43.77-2.15,1.04-.75.29-1.5.55-2.22.77-.73.22-1.42.41-2.04.54-.54.13-.56.46-.56.59,0,.16.09.45.51.54.06.01.19.05.43.09.21.05.45.1.71.16l.12.03c.21.05.41.09.58.12.29.06.38.07.35.08.08.01.08.03.08.09v12.24c0,.53-.11.96-.34,1.27-.24.33-.51.59-.81.77-.32.19-.62.32-.9.38-.22.06-.51.12-.68.14-.19.05-.32.12-.41.23-.12.13-.16.29-.13.43.03.13.11.25.23.35.12.09.28.15.47.15h12.24c.19,0,.35-.06.46-.15.12-.1.2-.22.23-.35.03-.16,0-.31-.12-.44-.09-.11-.22-.18-.45-.24-.14-.01-.43-.08-.64-.14-.28-.07-.59-.2-.9-.38-.3-.18-.57-.44-.81-.77-.22-.31-.33-.74-.33-1.27v-10.15c0-.45.02-.95.08-1.48.05-.53.2-1.04.43-1.51.22-.46.58-.84,1.06-1.15.47-.31,1.16-.47,2.05-.47s1.54.16,2.03.47c.51.32.9.73,1.15,1.23.27.5.45,1.07.54,1.7.09.64.13,1.27.16,1.86v9.49c0,.53-.11.96-.34,1.27-.25.34-.51.59-.81.77-.32.19-.61.32-.91.38-.32.08-.52.13-.66.14-.19.05-.32.12-.42.23-.11.14-.16.29-.11.43.03.13.11.26.22.35.12.09.28.15.47.15h12.23c.19,0,.35-.06.47-.15.12-.1.2-.22.22-.35.04-.16,0-.32-.12-.44-.09-.11-.22-.18-.45-.24Z"/><path d="m118.86,17.97c-.28-.63-.66-1.25-1.15-1.91-.47-.64-1.08-1.23-1.81-1.76-.72-.51-1.59-.94-2.58-1.27-.99-.33-2.15-.49-3.43-.49-1.37,0-2.74.24-4.06.73-1.32.48-2.52,1.18-3.57,2.11-1.04.92-1.9,2.08-2.55,3.44-.65,1.38-.97,2.96-.97,4.72,0,1.61.26,3.08.78,4.37.52,1.3,1.27,2.41,2.23,3.31.96.91,2.13,1.6,3.47,2.07,1.34.47,2.85.71,4.49.71,1.08,0,2.08-.11,2.97-.3.89-.2,1.68-.46,2.37-.78.69-.32,1.29-.66,1.78-1.04.5-.37.92-.74,1.25-1.08.32-.34.59-.65.77-.93.18-.26.29-.45.35-.54.25-.48.07-.75-.05-.87-.2-.19-.48-.24-.81-.11-.16.06-.38.18-.73.39-.28.18-.66.37-1.15.59-.48.21-1.04.39-1.68.55-.62.16-1.36.23-2.19.23-1.06,0-2.01-.16-2.81-.47-.79-.31-1.46-.79-1.99-1.42-.54-.65-.95-1.51-1.23-2.54-.28-1.05-.42-2.32-.42-3.79,0-.09,0-.11.12-.11h12.55c.22,0,.41-.04.56-.12.11-.06.29-.21.29-.54s-.05-.79-.18-1.35c-.11-.56-.32-1.17-.62-1.8Zm-12.25.07c.11-.44.25-.89.42-1.35.18-.45.39-.87.65-1.23.24-.35.54-.65.88-.87.33-.21.73-.32,1.17-.32.57,0,1.06.15,1.45.46.41.32.75.71,1.02,1.19.27.48.47.98.59,1.52.13.53.19,1.01.19,1.42,0,.38-.1.63-.3.77-.24.16-.47.25-.73.27-.02,0-.12.02-.53.03l-1.07.03c-.41.01-.85.03-1.3.05l-1.29.04c-.39.01-.73.03-1.01.03-.32.01-.45.01-.51.01.02-.19.06-.47.12-.83.05-.41.14-.81.25-1.21Z"/><path d="m143.34,27.71c-.21-.19-.49-.23-.83-.1-.16.07-.43.24-.85.54-.37.27-.85.56-1.42.86-.58.3-1.27.58-2.01.82-.75.24-1.57.37-2.47.37s-1.78-.18-2.57-.54c-.79-.35-1.48-.86-2.08-1.52-.59-.66-1.06-1.48-1.4-2.43-.34-.96-.51-2.07-.51-3.29s.11-2.35.31-3.37c.2-1.01.5-1.88.87-2.59.37-.69.82-1.23,1.33-1.62.49-.36,1.04-.55,1.63-.55.47,0,.8.11,1.02.36.26.27.47.59.62.97.17.42.31.83.44,1.25.14.47.32.85.55,1.16.3.42.7.73,1.18.9.77.29,1.7.34,2.56.12.36-.1.7-.26.99-.48.29-.21.54-.5.73-.85.19-.35.28-.77.28-1.27,0-.58-.2-1.12-.62-1.61-.39-.47-.95-.89-1.64-1.23-.68-.34-1.5-.61-2.45-.79-.94-.19-1.99-.29-3.1-.29-.69,0-1.48.08-2.34.24-.85.16-1.73.41-2.62.77-.87.35-1.76.81-2.6,1.38-.85.57-1.61,1.28-2.26,2.11-.66.83-1.19,1.8-1.59,2.92-.4,1.1-.6,2.38-.6,3.81,0,1.62.26,3.08.78,4.34.52,1.27,1.29,2.36,2.28,3.23.98.87,2.17,1.54,3.55,1.99,1.38.45,2.93.68,4.64.68,1.1,0,2.11-.11,3.02-.33.89-.21,1.71-.49,2.44-.84.72-.34,1.36-.73,1.92-1.15.54-.41,1-.83,1.4-1.23.39-.39.71-.77.94-1.11.23-.32.4-.57.5-.74.28-.49.09-.77-.04-.89Z"/></svg>